# Blender v2.78 (sub 0) OBJ File: ''
# www.blender.org
mtllib skybox.mtl
o Cube
v 30.211216 -30.211216 -30.211216
v 30.211216 -30.211216 30.211216
v -30.211218 -30.211216 30.211206
v -30.211203 -30.211216 -30.211226
v 30.211227 30.211216 -30.211203
v 30.211199 30.211216 30.211231
v -30.211226 30.211216 30.211205
v -30.211214 30.211216 -30.211216
vt 0.2503 0.2503
vt 0.5002 0.2503
vt 0.5002 0.5002
vt 0.2503 0.5002
vt 0.2501 0.2503
vt 0.2501 0.5002
vt 0.0001 0.5002
vt 0.0001 0.2503
vt 0.2500 0.0001
vt 0.5000 0.0001
vt 0.5000 0.2501
vt 0.2500 0.2500
vt 0.7499 0.0001
vt 0.7499 0.2501
vt 0.9999 0.0001
vt 0.9999 0.2501
vt 0.0001 0.2501
vt 0.0001 0.0001
vn 0.0000 1.0000 0.0000
vn 0.0000 -1.0000 0.0000
vn -1.0000 -0.0000 -0.0000
vn 0.0000 0.0000 -1.0000
vn 1.0000 0.0000 0.0000
vn -0.0000 -0.0000 1.0000
usemtl Material
s off
f 1/1/1 4/2/1 3/3/1 2/4/1
f 5/5/2 6/6/2 7/7/2 8/8/2
f 1/9/3 2/10/3 6/11/3 5/12/3
f 2/10/4 3/13/4 7/14/4 6/11/4
f 3/13/5 4/15/5 8/16/5 7/14/5
f 5/12/6 8/17/6 4/18/6 1/9/6
